<svg width="32" height="32" viewBox="0 0 32 32" fill="none" xmlns="http://www.w3.org/2000/svg">
  <defs>
    <linearGradient id="brainGradient" x1="0" y1="0" x2="1" y2="1">
      <stop offset="0%" stop-color="#3B82F6"/>
      <stop offset="50%" stop-color="#8B5CF6"/>
      <stop offset="100%" stop-color="#EC4899"/>
    </linearGradient>
  </defs>
  <path d="M16 4C12.6863 4 10 6.68629 10 10C10 10.3333 10.0333 10.6667 10.1 11C9.46667 11.2 8.9 11.5333 8.4 12C7.2 13.2 7.2 15.1333 8.4 16.3333C8.6 16.5333 8.8333 16.7 9.1 16.8C9.03333 17.2 9 17.6 9 18C9 21.3137 11.6863 24 15 24H17C20.3137 24 23 21.3137 23 18C23 17.6 22.9667 17.2 22.9 16.8C23.1667 16.7 23.4 16.5333 23.6 16.3333C24.8 15.1333 24.8 13.2 23.6 12C23.1 11.5333 22.5333 11.2 21.9 11C21.9667 10.6667 22 10.3333 22 10C22 6.68629 19.3137 4 16 4Z" fill="url(#brainGradient)"/>
  <circle cx="13" cy="12" r="1" fill="white" opacity="0.8"/>
  <circle cx="19" cy="12" r="1" fill="white" opacity="0.8"/>
  <path d="M14 16C14.5523 16 15 15.5523 15 15C15 14.4477 14.5523 14 14 14C13.4477 14 13 14.4477 13 15C13 15.5523 13.4477 16 14 16Z" fill="white" opacity="0.8"/>
  <path d="M18 16C18.5523 16 19 15.5523 19 15C19 14.4477 18.5523 14 18 14C17.4477 14 17 14.4477 17 15C17 15.5523 17.4477 16 18 16Z" fill="white" opacity="0.8"/>
</svg>